<svg xmlns="http://www.w3.org/2000/svg" version="1.1" xmlns:xlink="http://www.w3.org/1999/xlink" xmlns:svgjs="http://svgjs.com/svgjs" width="512" height="512" x="0" y="0" viewBox="0 0 64 64" style="enable-background:new 0 0 512 512" xml:space="preserve" class=""><g><g data-name="Ecommerce-transfer money-buy-smartphone-hands"><path d="m56.293 14.293 1.414 1.414 4-4a1 1 0 0 0 0-1.414l-4-4-1.414 1.414L58.586 10H47v2h11.586ZM50.293 23.707l1.414-1.414L49.414 20H61v-2H49.414l2.293-2.293-1.414-1.414-4 4a1 1 0 0 0 0 1.414Z" fill="#000000" data-original="#000000" class=""></path><path d="M60.83 31.17a3.979 3.979 0 0 0-5.41-.21A3.966 3.966 0 0 0 52 29a3.56 3.56 0 0 0-1.31.23 3.839 3.839 0 0 0-1.26.74A4 4 0 0 0 46 28a3.953 3.953 0 0 0-2 .55V12a4 4 0 0 0-4-4 3.953 3.953 0 0 0-2 .55V5a3.009 3.009 0 0 0-3-3H11a3.009 3.009 0 0 0-3 3v20H7a5 5 0 0 0-5 5v4.09l2 20.96V61a1 1 0 0 0 1 1h22a1 1 0 0 0 1-1v-5.68L31.72 50h2.15L35 53.17V61a1 1 0 0 0 1 1h20a1 1 0 0 0 1-1v-7.83l4.59-12.86a7 7 0 0 0 .41-2.35V34a4 4 0 0 0-1.17-2.83ZM26 60H6v-4h20Zm.48-6H5.91L4 34v-4a3.009 3.009 0 0 1 3-3h7a3 3 0 1 1 0 6H9a1 1 0 0 0-1 1v13a3.009 3.009 0 0 0 3 3h18.28ZM11 48a1 1 0 0 1-1-1v-3h18v-2H10v-7h4a5 5 0 0 0 0-10h-4V5a1 1 0 0 1 1-1h24a1 1 0 0 1 1 1v20.56a3.927 3.927 0 0 0-2.01-.56A4 4 0 0 0 30 28.99v8.97a7.1 7.1 0 0 0 .41 2.36L33.15 48Zm29 12h-3v-6h3Zm5 0h-3v-6h3Zm5 0h-3v-6h3Zm5 0h-3v-6h3Zm5-22.04a5.073 5.073 0 0 1-.29 1.68L55.3 52H36.7l-4.41-12.35a5.176 5.176 0 0 1-.29-1.69v-8.97a2 2 0 0 1 4 .01v8h2V12a2.015 2.015 0 0 1 2-2 2.006 2.006 0 0 1 2 2v25h2v-5a2.015 2.015 0 0 1 2-2 2.006 2.006 0 0 1 2 2v5h2v-4a1.983 1.983 0 0 1 .59-1.41 1.8 1.8 0 0 1 .77-.48A1.868 1.868 0 0 1 52 31a2.006 2.006 0 0 1 2 2v5h2v-4a2.006 2.006 0 0 1 2-2 2.015 2.015 0 0 1 2 2Z" fill="#000000" data-original="#000000" class=""></path><path d="M23 6a10 10 0 1 0 10 10A10.016 10.016 0 0 0 23 6Zm0 18a8 8 0 1 1 8-8 8.011 8.011 0 0 1-8 8Z" fill="#000000" data-original="#000000" class=""></path><path d="M26 18a3.01 3.01 0 0 1-2 2.82V22h-2v-1.18A3.01 3.01 0 0 1 20 18h2a1 1 0 1 0 1-1 3 3 0 0 1-1-5.82V10h2v1.18A3.01 3.01 0 0 1 26 14h-2a1 1 0 1 0-1 1 3.009 3.009 0 0 1 3 3Z" fill="#000000" data-original="#000000" class=""></path></g></g></svg>