<svg xmlns="http://www.w3.org/2000/svg" version="1.1" xmlns:xlink="http://www.w3.org/1999/xlink" xmlns:svgjs="http://svgjs.com/svgjs" width="512" height="512" x="0" y="0" viewBox="0 0 512 512" style="enable-background:new 0 0 512 512" xml:space="preserve" class=""><g><path d="M290.64 195.113c0-24.615-20.025-44.641-44.64-44.641s-44.64 20.025-44.64 44.641c0 24.614 20.025 44.64 44.64 44.64 24.614 0 44.64-20.025 44.64-44.64zm-69.28 0c0-13.587 11.054-24.641 24.64-24.641s24.64 11.054 24.64 24.641c0 13.586-11.054 24.64-24.64 24.64s-24.64-11.054-24.64-24.64zM341 377.334H151c-5.523 0-10 4.478-10 10v30c0 5.522 4.477 10 10 10h190c5.522 0 10-4.478 10-10v-30c0-5.522-4.478-10-10-10zm-10 30H161v-10h170zM341 347.334H161v-10h110c5.522 0 10-4.478 10-10s-4.478-10-10-10H151c-5.523 0-10 4.478-10 10v30c0 5.522 4.477 10 10 10h190c5.522 0 10-4.478 10-10s-4.478-10-10-10z" fill="#000000" data-original="#000000"></path><path d="M436.771 259.06 401 248.177V74.667c0-20.586-16.747-37.333-37.333-37.333H128.334C107.748 37.334 91 54.081 91 74.667v362.667c0 20.585 16.748 37.332 37.333 37.332h235.333c20.586 0 37.333-16.747 37.333-37.332V290.121l36.023-12.007a10 10 0 0 0-.251-19.054zm-59.749 17.97a10.004 10.004 0 0 0-6.325 6.325l-7.97 23.911-16.705-54.91 54.91 16.705zM320.74 57.334c-1.696 11.303-11.472 20-23.24 20h-103c-11.769 0-21.544-8.697-23.24-20zm42.927 397.332H128.333c-9.558 0-17.333-7.775-17.333-17.332V74.667c0-9.558 7.776-17.333 17.333-17.333h22.82c1.79 22.354 20.54 40 43.347 40h103c22.807 0 41.557-17.646 43.347-40h22.82c9.558 0 17.333 7.775 17.333 17.333v167.426l-47.09-14.326c-7.636-2.324-14.803 4.831-12.478 12.478l31.293 102.861a10.002 10.002 0 0 0 9.436 7.089c4.143.092 8.194-2.563 9.619-6.837l9.22-27.662v121.639c0 9.556-7.775 17.331-17.333 17.331z" fill="#000000" data-original="#000000"></path><path d="M151 300.775h130c5.522 0 10-4.478 10-10s-4.478-10-10-10h-13.344c24.487-25.237 56.123-44.404 56.123-85.662 0-42.888-34.892-77.779-77.779-77.779s-77.779 34.892-77.779 77.779c0 41.259 31.64 60.429 56.123 85.662H151c-5.523 0-10 4.478-10 10s4.477 10 10 10zm37.221-105.662c0-31.859 25.919-57.779 57.779-57.779 31.859 0 57.779 25.92 57.779 57.779 0 34.675-30.979 48.817-57.779 79.664-26.875-30.932-57.779-44.947-57.779-79.664zM51 317.334c-16.542 0-30 13.458-30 30s13.458 30 30 30 30-13.458 30-30-13.458-30-30-30zm0 40c-5.514 0-10-4.486-10-10s4.486-10 10-10 10 4.486 10 10-4.486 10-10 10zM456 117.334c-19.299 0-35 15.701-35 35s15.701 35 35 35 35-15.701 35-35-15.701-35-35-35zm0 50c-8.271 0-15-6.729-15-15s6.729-15 15-15 15 6.729 15 15c0 8.27-6.729 15-15 15z" fill="#000000" data-original="#000000"></path><circle cx="61" cy="57.334" r="10" fill="#000000" data-original="#000000"></circle><circle cx="41" cy="227.334" r="10" fill="#000000" data-original="#000000"></circle><circle cx="441" cy="87.334" r="10" fill="#000000" data-original="#000000"></circle><circle cx="461" cy="317.334" r="10" fill="#000000" data-original="#000000"></circle><circle cx="301" cy="327.334" r="10" fill="#000000" data-original="#000000"></circle><circle cx="71" cy="427.334" r="10" fill="#000000" data-original="#000000"></circle></g></svg>