<svg xmlns="http://www.w3.org/2000/svg" version="1.1" xmlns:xlink="http://www.w3.org/1999/xlink" xmlns:svgjs="http://svgjs.com/svgjs" width="512" height="512" x="0" y="0" viewBox="0 0 512 512" style="enable-background:new 0 0 512 512" xml:space="preserve" class=""><g><path d="M144 140v4H93.333a27.927 27.927 0 0 0-25.846 17.23l-10.872 26.093 14.77 6.154 10.872-26.092A11.967 11.967 0 0 1 93.333 160H208v-16h-48v-4a12.013 12.013 0 0 1 12-12h36v-16h-36a28.032 28.032 0 0 0-28 28ZM191.333 240a48.005 48.005 0 0 0-94.666 0H52l11.385-27.323-14.77-6.154-14.775 35.46a7.978 7.978 0 0 0-1.043 1.1l-31.111 40A7.994 7.994 0 0 0 0 288v84a28.044 28.044 0 0 0 23.407 27.623V420a28.032 28.032 0 0 0 28 28H92a28.032 28.032 0 0 0 28-28v-20h88v-16H107.1l-8-24H208v-16H96.254a45.783 45.783 0 0 1 18.274-32H208v-16h-94.59l-79.119-28.771L43.024 256H208v-16ZM104 420a12.013 12.013 0 0 1-12 12H51.407a12.013 12.013 0 0 1-12-12v-20H104Zm-76-36a12.013 12.013 0 0 1-12-12v-38.793A71.9 71.9 0 0 0 72 360h10.234l8 24Zm68.417-77.154A61.727 61.727 0 0 0 80.188 344H72a56.069 56.069 0 0 1-55.937-53.336l7.905-10.164ZM113.013 240a32 32 0 0 1 61.974 0ZM512 88V28a28.032 28.032 0 0 0-28-28H252a28.032 28.032 0 0 0-28 28v456a28.032 28.032 0 0 0 28 28h36v-16h-36a12.013 12.013 0 0 1-12-12v-12h256v12a12.013 12.013 0 0 1-12 12H304v16h180a28.032 28.032 0 0 0 28-28V104h-16v352H240V28a12.013 12.013 0 0 1 12-12h232a12.013 12.013 0 0 1 12 12v60Z" fill="#000000" data-original="#000000" class=""></path><path d="m349.657 154.343-11.314 11.314 24 24A8 8 0 0 0 368 192h.235a8 8 0 0 0 5.744-2.682l64-72-11.958-10.63-58.364 65.659Z" fill="#000000" data-original="#000000" class=""></path><path d="M304 168a64 64 0 1 0 127.352-9.134l-15.838 2.268A48.758 48.758 0 0 1 416 168a48 48 0 1 1-48-48 47.568 47.568 0 0 1 20.567 4.615l6.866-14.452A64.025 64.025 0 0 0 304 168ZM472 64a8 8 0 0 0-8-8h-24v16h16v16h16ZM472 272v-24h-16v16h-16v16h24a8 8 0 0 0 8-8ZM264 272a8 8 0 0 0 8 8h24v-16h-16v-16h-16ZM280 72h16V56h-24a8 8 0 0 0-8 8v24h16ZM316 424h104a28.032 28.032 0 0 0 28-28v-24a28.032 28.032 0 0 0-28-28H316a28.032 28.032 0 0 0-28 28v24a28.032 28.032 0 0 0 28 28Zm-12-52a12.013 12.013 0 0 1 12-12h104a12.013 12.013 0 0 1 12 12v24a12.013 12.013 0 0 1-12 12H316a12.013 12.013 0 0 1-12-12Z" fill="#000000" data-original="#000000" class=""></path></g></svg>